<svg fill="#1972e6" height="200px" width="200px" version="1.1" id="Capa_1" xmlns="http://www.w3.org/2000/svg" xmlns:xlink="http://www.w3.org/1999/xlink" viewBox="0 0 442 442" xml:space="preserve" stroke="#1972e6"><g id="SVGRepo_bgCarrier" stroke-width="0"></g><g id="SVGRepo_tracerCarrier" stroke-linecap="round" stroke-linejoin="round"></g><g id="SVGRepo_iconCarrier"> <g> <path d="M153.324,182.086c14.258,10.621,35.763,15.567,67.676,15.567s53.418-4.946,67.676-15.567 c15.134-11.273,22.49-29.202,22.49-54.813V90.167C311.167,40.449,270.718,0,221,0s-90.167,40.449-90.167,90.167v37.105 C130.833,152.884,138.19,170.813,153.324,182.086z M150.833,90.167C150.833,51.477,182.31,20,221,20s70.167,31.477,70.167,70.167 v37.105c0,19.378-4.453,31.337-14.438,38.774c-10.631,7.918-28.339,11.606-55.729,11.606s-45.098-3.688-55.729-11.606 c-9.985-7.438-14.438-19.396-14.438-38.774V90.167z"></path> <path d="M326.479,385.017v-19.148c0-5.522-4.477-10-10-10h-69.957v-43.414c0-5.522-4.477-10-10-10h-5.714l0.134-23.213h63.112 c20.801,0,37.724-16.923,37.724-37.725c0-20.801-16.923-37.724-37.724-37.724H147.945c-20.801,0-37.724,16.923-37.724,37.724 c0,20.802,16.923,37.725,37.724,37.725h62.997l-0.134,23.213h-5.329c-5.523,0-10,4.478-10,10v43.414h-69.957 c-5.523,0-10,4.478-10,10v19.148c-11.285,4.1-19.369,14.929-19.369,27.614c0,16.194,13.175,29.369,29.369,29.369 s29.369-13.175,29.369-29.369c0-12.685-8.084-23.514-19.369-27.614v-9.148h69.957H211v9.148 c-11.285,4.1-19.369,14.929-19.369,27.614C191.631,428.825,204.806,442,221,442s29.369-13.175,29.369-29.369 c0-12.685-8.084-23.514-19.369-27.614v-9.148h5.522h69.957v9.148c-11.285,4.1-19.369,14.929-19.369,27.614 c0,16.194,13.175,29.369,29.369,29.369s29.369-13.175,29.369-29.369C345.848,399.946,337.764,389.117,326.479,385.017z M130.221,241.518c0-9.772,7.951-17.724,17.724-17.724h146.109c9.773,0,17.724,7.951,17.724,17.724 c0,9.773-7.951,17.725-17.724,17.725h-72.997h-0.059h-73.053C138.172,259.242,130.221,251.291,130.221,241.518z M125.521,422 c-5.166,0-9.369-4.203-9.369-9.369s4.203-9.369,9.369-9.369c5.166,0,9.369,4.203,9.369,9.369S130.687,422,125.521,422z M221,422 c-5.166,0-9.369-4.203-9.369-9.369s4.203-9.369,9.369-9.369s9.369,4.203,9.369,9.369S226.166,422,221,422z M215.478,322.455h5.214 c0.02,0,0.039,0,0.059,0h5.771v33.414h-11.044V322.455z M316.479,422c-5.166,0-9.369-4.203-9.369-9.369s4.203-9.369,9.369-9.369 c5.166,0,9.369,4.203,9.369,9.369S321.645,422,316.479,422z"></path> <path d="M102.356,241.518c0-5.522-4.477-10-10-10h-1.057v-56.853h12.445c5.523,0,10-4.478,10-10v-19.318 c0-12.058-9.81-21.867-21.868-21.867H70.721c-12.058,0-21.867,9.81-21.867,21.867v19.318c0,5.522,4.477,10,10,10h12.445v66.853 c0,5.522,4.477,10,10,10h11.057C97.879,251.518,102.356,247.04,102.356,241.518z M68.854,145.347c0-1.029,0.837-1.867,1.867-1.867 h21.156c1.03,0,1.868,0.838,1.868,1.867v9.318H68.854V145.347z"></path> <path d="M371.279,123.479h-21.156c-12.058,0-21.868,9.81-21.868,21.867v19.318c0,5.522,4.477,10,10,10h12.445v56.853h-1.057 c-5.523,0-10,4.478-10,10s4.477,10,10,10h11.057c5.523,0,10-4.478,10-10v-66.853h12.445c5.523,0,10-4.478,10-10v-19.318 C393.146,133.289,383.337,123.479,371.279,123.479z M373.146,154.665h-24.891v-9.318c0-1.029,0.838-1.867,1.868-1.867h21.156 c1.03,0,1.867,0.838,1.867,1.867V154.665z"></path> <path d="M177.987,100.167h85.728c5.523,0,10-4.478,10-10s-4.477-10-10-10h-85.728c-5.523,0-10,4.478-10,10 S172.464,100.167,177.987,100.167z"></path> <path d="M177.987,148.91h85.728c5.523,0,10-4.478,10-10s-4.477-10-10-10h-85.728c-5.523,0-10,4.478-10,10 S172.464,148.91,177.987,148.91z"></path> </g> </g></svg>