<?xml version="1.0" encoding="iso-8859-1"?>
<svg height="800px" width="800px" version="1.1" id="Layer_1" xmlns="http://www.w3.org/2000/svg" xmlns:xlink="http://www.w3.org/1999/xlink" 
	 viewBox="0 0 512 512" xml:space="preserve">
<path style="fill:#FFFFFF;" d="M256,503.999C119.034,503.999,8.001,392.966,8.001,256S119.033,8,256,8
	s247.999,111.033,247.999,247.999C503.849,392.904,392.904,503.849,256,503.999z"/>
<path style="fill:#E2E2E2;" d="M256,16c132.549,0,240,107.451,240,240S388.549,496,256,496S16,388.549,16,256
	C16.15,123.514,123.514,16.15,256,16 M256,0C114.615,0,0,114.615,0,256s114.615,256,256,256s256-114.615,256-256S397.384,0,256,0z"
	/>
<circle style="fill:#999999;" cx="255.989" cy="162.237" r="68.924"/>
<path style="fill:#E21B1B;" d="M374.895,384v-61.032c0-64.224-70.104-65.4-70.104-65.4H207.2c0,0-70.104,0.8-70.104,65.4V384
	H374.895z"/>
</svg>